<?xml version="1.0" encoding="utf-8"?>
<!-- Generator: Adobe Illustrator 26.0.1, SVG Export Plug-In . SVG Version: 6.00 Build 0)  -->
<svg version="1.1" id="Layer_1" xmlns="http://www.w3.org/2000/svg" xmlns:xlink="http://www.w3.org/1999/xlink" x="0px" y="0px"
	 viewBox="0 0 2000 2000" style="enable-background:new 0 0 2000 2000;" xml:space="preserve">
<style type="text/css">
	.st0{fill:#CCCCCB;}
	.st1{fill:#272460;}
	.st2{fill:#181546;}
</style>
<g>
	<g>
		<path class="st0" d="M740.45,549.3l-10.36-16.8l9.44,17.51C739.83,549.77,740.14,549.54,740.45,549.3z"/>
		<path class="st0" d="M675.58,611.84l-22.58-25.37l21.28,26.91C674.71,612.86,675.15,612.36,675.58,611.84z"/>
		<path class="st0" d="M626.39,684.58l-39.92-31.57l38.5,34.25C625.44,686.37,625.91,685.47,626.39,684.58z"/>
		<path class="st0" d="M594.05,763.29l-61.55-33.2l60.35,37.22C593.24,765.96,593.65,764.63,594.05,763.29z"/>
		<path class="st0" d="M578.5,843.8l-85.77-28.43l85.29,33.87C578.16,847.42,578.33,845.61,578.5,843.8z"/>
		<path class="st0" d="M578.79,922.45l-110.42-16.19l111.19,22.95C579.28,926.96,579.04,924.7,578.79,922.45z"/>
		<path class="st0" d="M594.78,996.1l-134.61,3.9l137.28,3.98C596.53,1001.36,595.65,998.73,594.78,996.1z"/>
		<polygon class="st0" points="623.85,1061.66 468.38,1093.74 628.54,1070.26 		"/>
		<polygon class="st0" points="655.65,1119.93 492.73,1184.63 660.6,1128.98 		"/>
		<polygon class="st0" points="685.89,1175.32 532.5,1269.91 690.89,1184.48 		"/>
		<path class="st0" d="M714.48,1233.1l-128.01,113.89l131.64-104.11C716.95,1239.6,715.74,1236.34,714.48,1233.1z"/>
		<path class="st0" d="M734.04,1311.08l-81.03,102.45l82.09-92.26C734.8,1317.86,734.45,1314.47,734.04,1311.08z"/>
		<path class="st0" d="M730.09,1467.5l10.34-16.76c-0.06-0.72-0.08-1.46-0.12-2.19L730.09,1467.5z"/>
		<path class="st0" d="M1259.57,1450.73l10.34,16.77l-10.22-18.95C1259.66,1449.28,1259.63,1450.01,1259.57,1450.73z"/>
		<path class="st0" d="M1264.9,1321.26l82.09,92.27l-81.03-102.46C1265.55,1314.46,1265.2,1317.86,1264.9,1321.26z"/>
		<path class="st0" d="M1281.89,1242.88l131.64,104.11l-128.01-113.89C1284.26,1236.34,1283.05,1239.6,1281.89,1242.88z"/>
		<polygon class="st0" points="1309.11,1184.48 1467.5,1269.91 1314.11,1175.32 		"/>
		<polygon class="st0" points="1339.4,1128.98 1507.27,1184.63 1344.34,1119.93 		"/>
		<polygon class="st0" points="1371.45,1070.26 1531.62,1093.74 1376.15,1061.66 		"/>
		<path class="st0" d="M1402.54,1003.98l137.29-3.98l-134.61-3.9C1404.34,998.73,1403.47,1001.36,1402.54,1003.98z"/>
		<path class="st0" d="M1420.43,929.21l111.19-22.95l-110.42,16.19C1420.96,924.7,1420.72,926.96,1420.43,929.21z"/>
		<path class="st0" d="M1421.98,849.24l85.29-33.87l-85.77,28.43C1421.67,845.61,1421.83,847.42,1421.98,849.24z"/>
		<path class="st0" d="M1407.15,767.31l60.35-37.22l-61.55,33.2C1406.35,764.63,1406.76,765.96,1407.15,767.31z"/>
		<path class="st0" d="M1413.53,653.01l-39.92,31.57c0.48,0.89,0.95,1.79,1.42,2.68L1413.53,653.01z"/>
		<path class="st0" d="M1346.99,586.47l-22.58,25.38c0.43,0.51,0.87,1.02,1.3,1.53L1346.99,586.47z"/>
		<path class="st0" d="M1269.91,532.5l-10.36,16.8c0.3,0.24,0.61,0.47,0.92,0.7L1269.91,532.5z"/>
		<path class="st0" d="M662.67,883.55c0,45.55,11.54,90.76,33.36,130.73l76.96,141.02c14.51,26.58,25.92,54.72,34.12,83.76v-161.58
			c-39.24-69.43-78.71-174.07-56.49-292.22c39.81-211.75,237.01-238.79,237.01-238.79C807.34,553.01,662.67,701.69,662.67,883.55z"
			/>
	</g>
	<path class="st1" d="M1192.89,1062.06c0-0.36-0.3-0.67-0.67-0.67h-29.71c-0.46,0-0.79-0.46-0.64-0.88
		c12.53-38.04,9.12-78.53-10.55-113.14c-13.8-24.23-34.75-45.88-55.97-63c-21.22-17.06-43.39-31.89-66.43-44.6l-1.64-28.25
		c9.61-5.05,15.75-12.68,15.75-21.25c0-10.37-9.03-19.37-22.35-24.05c-0.06-0.7-0.21-1.49-0.46-4.44c-0.24-3.44-1.79-6.78-3.86-9.73
		c1.43-4.01,1.28-8.24-0.12-11.92L1000,697.27v159.56c0,0,163.12,58.23,132.14,205.69v31.01h43.2c-0.94,0,0,199.12,0,199.12
		l17.54-53.57v-0.02V1062.06z"/>
	<g>
		<path class="st2" d="M1826.26,1074.53c-9.12-5.15-18.46-10.15-27.82-15.01c2.91-40.07,2.78-80.54-0.42-121.13
			c24.52-13.03,48.97-27.09,73.24-42.2c-2.45-22.97-5.12-45.99-10.12-68.62l-3.35-17.04c-1.23-5.65-2.79-11.24-4.22-16.85
			c-3.06-11.17-5.73-22.44-9.5-33.39c-17.53-2.92-34.95-5.44-52.25-7.56c-10.56-1.29-21.03-2.43-31.56-3.4
			c-12.63-38.59-28.13-75.92-46.29-111.8c17.74-21.47,34.64-43.69,51.28-66.99c-10.94-20.36-22.41-40.55-35.68-59.54l-9.65-14.44
			c-3.34-4.72-6.9-9.3-10.37-13.92l-10.59-13.76l-5.35-6.82l-5.68-6.56c-17.28,4.03-34.32,8.39-51.09,13.07
			c-8.39,2.34-16.7,4.75-24.96,7.26c-1.75,0.54-3.46,1.13-5.2,1.68c-26.27-30.4-54.98-58.92-85.95-85.36
			c8.14-26.58,15.54-53.89,21.87-81.6c-8.95-7.31-18.01-14.5-27.16-21.58c-9.24-6.96-18.92-13.32-28.47-19.86
			c-9.41-6.75-19.44-12.56-29.35-18.53l-14.96-8.8c-5.05-2.81-10.26-5.36-15.4-8c-14.42,10.26-28.48,20.73-42.17,31.4
			c-8.3,6.46-16.55,13.2-24.69,20c-36.25-18.37-73.65-33.83-111.89-46.37c-0.99-10.41-2.1-20.85-3.37-31.35
			c-2.11-17.42-4.61-35.02-7.66-52.19c-11.07-3.37-22.19-6.63-33.36-9.69c-11.29-2.59-22.61-5.04-33.96-7.39l-8.5-1.79l-8.58-1.38
			l-17.18-2.63l-17.2-2.41l-17.31-1.41c-9.36,15.01-18.32,30.07-26.86,45.17c-5.15,9.12-10.15,18.46-15.01,27.82
			c-40.07-2.91-80.54-2.78-121.13,0.42c-13.03-24.52-27.09-48.97-42.2-73.24c-22.97,2.45-45.99,5.12-68.62,10.12l-17.04,3.35
			c-5.65,1.23-11.24,2.79-16.85,4.22c-11.17,3.06-22.44,5.73-33.39,9.5c-2.92,17.53-5.44,34.95-7.56,52.25
			c-1.29,10.56-2.43,21.03-3.4,31.56c-38.59,12.63-75.93,28.13-111.8,46.29c-21.47-17.74-43.69-34.64-66.99-51.28
			c-20.36,10.94-40.55,22.41-59.54,35.68l-14.44,9.65c-4.72,3.34-9.3,6.89-13.92,10.37l-13.76,10.59l-6.82,5.35l-6.56,5.68
			c4.03,17.28,8.39,34.32,13.07,51.09c2.34,8.39,4.75,16.7,7.26,24.96c0.54,1.75,1.13,3.46,1.68,5.2
			c-30.4,26.27-58.92,54.98-85.35,85.95c-26.58-8.14-53.89-15.54-81.6-21.87c-7.31,8.95-14.5,18.01-21.58,27.16
			c-6.96,9.24-13.32,18.92-19.86,28.47c-6.75,9.41-12.56,19.44-18.53,29.35l-8.8,14.96c-2.81,5.05-5.36,10.26-8,15.4
			c10.26,14.42,20.73,28.48,31.4,42.17c6.46,8.3,13.2,16.55,20,24.69c-18.37,36.25-33.83,73.65-46.37,111.89
			c-10.41,0.99-20.85,2.1-31.35,3.37c-17.42,2.11-35.02,4.61-52.19,7.66c-3.37,11.07-6.63,22.19-9.69,33.36
			c-2.59,11.29-5.04,22.61-7.39,33.96l-1.79,8.5l-1.38,8.58l-2.63,17.17l-2.41,17.2l-1.41,17.31c15.01,9.36,30.07,18.32,45.17,26.86
			c9.12,5.15,18.46,10.15,27.82,15.01c-2.91,40.07-2.78,80.54,0.42,121.13c-24.52,13.03-48.97,27.09-73.24,42.2
			c2.45,22.97,5.12,45.99,10.12,68.62l3.35,17.04c1.23,5.65,2.79,11.24,4.22,16.85c3.06,11.17,5.73,22.44,9.5,33.39
			c17.53,2.92,34.95,5.44,52.25,7.56c10.56,1.29,21.03,2.43,31.56,3.4c12.63,38.59,28.13,75.93,46.29,111.8
			c-17.74,21.47-34.64,43.69-51.28,66.99c10.94,20.36,22.41,40.55,35.68,59.54l9.65,14.44c3.34,4.72,6.89,9.3,10.37,13.92
			l10.59,13.76l5.35,6.82l5.68,6.56c17.28-4.03,34.32-8.39,51.09-13.07c8.39-2.34,16.7-4.75,24.96-7.26
			c1.75-0.54,3.46-1.13,5.2-1.68c26.27,30.4,54.98,58.92,85.95,85.36c-8.14,26.57-15.54,53.89-21.87,81.6
			c8.95,7.31,18.01,14.5,27.16,21.58c9.24,6.96,18.92,13.32,28.47,19.86c9.41,6.75,19.44,12.56,29.35,18.53l14.96,8.8
			c5.05,2.81,10.26,5.36,15.4,8c14.42-10.26,28.48-20.73,42.17-31.4c8.3-6.46,16.55-13.2,24.69-20.01
			c36.25,18.38,73.65,33.86,111.9,46.39c0.99,10.4,2.1,20.84,3.37,31.33c2.11,17.42,4.61,35.02,7.66,52.19
			c11.07,3.37,22.19,6.63,33.36,9.69c11.29,2.59,22.61,5.04,33.96,7.39l8.5,1.79l8.58,1.38l17.17,2.63l17.2,2.41l17.31,1.41
			c9.36-15.01,18.32-30.07,26.86-45.17c5.15-9.12,10.14-18.45,15.01-27.81c19.19,1.4,38.48,2.12,57.82,2.12
			c21.05,0,42.17-0.86,63.33-2.53c13.03,24.51,27.08,48.95,42.19,73.22c22.97-2.45,46-5.12,68.63-10.12l17.04-3.35
			c5.65-1.23,11.24-2.79,16.85-4.22c11.17-3.06,22.44-5.73,33.39-9.5c2.92-17.53,5.44-34.95,7.56-52.25
			c1.29-10.56,2.43-21.03,3.4-31.56c38.59-12.63,75.93-28.13,111.8-46.29c21.47,17.74,43.69,34.64,66.99,51.28
			c20.36-10.94,40.55-22.41,59.54-35.68l14.44-9.65c4.72-3.34,9.3-6.89,13.92-10.37l13.76-10.59l6.82-5.36l6.56-5.68
			c-4.03-17.28-8.39-34.32-13.07-51.09c-2.34-8.39-4.75-16.7-7.26-24.96c-0.54-1.75-1.13-3.46-1.68-5.2
			c30.4-26.27,58.92-54.98,85.36-85.95c26.57,8.14,53.89,15.54,81.6,21.87c7.31-8.95,14.5-18.01,21.58-27.16
			c6.96-9.24,13.32-18.92,19.86-28.47c6.75-9.41,12.56-19.44,18.53-29.35l8.8-14.96c2.81-5.05,5.36-10.26,8-15.4
			c-10.26-14.42-20.73-28.48-31.4-42.17c-6.46-8.3-13.2-16.55-20-24.69c18.37-36.25,33.83-73.65,46.37-111.89
			c10.41-0.99,20.85-2.1,31.35-3.37c17.42-2.11,35.02-4.61,52.19-7.66c3.37-11.07,6.63-22.19,9.69-33.36
			c2.59-11.29,5.04-22.61,7.39-33.96l1.79-8.5l1.39-8.58l2.63-17.17l2.41-17.2l1.41-17.31
			C1856.42,1092.03,1841.36,1083.07,1826.26,1074.53z M1713.33,842.52l3.2,19.85l-43.85,45.69l49.92-8.05l3.81,23.63l-93.69,15.11
			l-3.2-19.85l43.85-45.68l-49.92,8.05l-3.81-23.63L1713.33,842.52z M1633.34,733.62c8.04-0.22,14.73,6.12,14.95,14.15
			c0.22,8.04-6.12,14.73-14.15,14.95c-8.04,0.22-14.73-6.12-14.95-14.15C1618.97,740.53,1625.3,733.84,1633.34,733.62z
			 M1588.54,638.6c13.21-2.22,25.72,6.68,27.94,19.89c2.22,13.21-6.68,25.72-19.89,27.94s-25.72-6.68-27.94-19.89
			C1566.43,653.33,1575.34,640.82,1588.54,638.6z M1535.51,569.53c7.66-2.42,15.84,1.82,18.27,9.49c2.42,7.66-1.82,15.84-9.49,18.27
			c-7.66,2.42-15.84-1.82-18.27-9.49C1523.59,580.13,1527.84,571.95,1535.51,569.53z M1374.88,337.35l45.86,32.95l-34.2,90.74
			l75.08-61.37l45.86,32.95l-87.62,121.96l-34.11-24.51l26.77-37.27l14.11-18.62l17.75-20.63l-0.32-0.23l-77.3,63.11l-26.39-18.96
			l35.14-93.4l-0.32-0.23l-11.29,19.11l-12.83,19.55l-29.69,41.33l-34.11-24.51L1374.88,337.35z M1264.55,290.31l43.28,17.7
			l-56.83,139l-43.28-17.7L1264.55,290.31z M1095.58,247.41l45.9,8.96l-22.05,113l63.02,12.3l-6.71,34.39l-108.92-21.25
			L1095.58,247.41z M903.53,290.96c-1.53-31.88,23.83-49.17,59.45-50.88c39.58-1.9,58.61,18.48,63.23,44.57l-44.33,2.13
			c-1.04-5.17-3.76-8.17-7.22-9.89c-3.45-1.71-7.65-2.35-12.2-2.13c-10.29,0.49-14.69,3.84-14.43,9.25
			c1.08,22.5,82.35,4.61,84.96,59.19c1.67,34.79-25.03,52.99-64.22,54.87c-37.6,1.81-63.25-20.14-65.54-47.18l44.73-2.15
			c1.25,5.37,4.21,9.2,8.29,11.5c3.88,2.32,8.89,3.33,13.44,3.11c11.68-0.56,19.21-4.89,18.87-11.97
			C987.46,328.69,906.27,348.25,903.53,290.96z M744.39,287.09l27.86,85.47c4.59,14.08,11.17,25.32,29.44,19.36
			c16.01-5.22,17.23-17.47,12.19-32.93l-27.86-85.47l44.46-14.5l26.31,80.71c14.93,45.81,1.31,72.41-43.71,87.09
			c-42.01,13.7-70.86,4.46-86.89-44.72l-26.25-80.51L744.39,287.09z M543.13,396.04l74.6,61.96L584.23,367l46.12-32.58l86.67,122.65
			l-34.31,24.24l-26.48-37.48l-13-19.42l-13.71-23.52l-0.32,0.23l34.41,93.68l-26.54,18.75l-76.82-63.72l-0.32,0.23l14.38,16.91
			l14.29,18.51l29.37,41.56l-34.31,24.24L497,428.62L543.13,396.04z M446.23,579.02c2.42-7.66,10.6-11.91,18.27-9.49
			c7.66,2.42,11.91,10.6,9.49,18.27s-10.6,11.91-18.27,9.49C448.05,594.86,443.8,586.68,446.23,579.02z M383.51,658.48
			c2.22-13.21,14.73-22.11,27.94-19.89s22.11,14.73,19.89,27.94c-2.22,13.21-14.73,22.11-27.94,19.89
			C390.19,684.2,381.29,671.69,383.51,658.48z M366.66,733.62c8.04,0.22,14.37,6.91,14.15,14.95c-0.22,8.04-6.91,14.37-14.95,14.15
			c-8.04-0.22-14.37-6.91-14.15-14.95C351.93,739.74,358.63,733.4,366.66,733.62z M277.83,885.46c1.42-9.02,4.79-16.79,10.12-23.32
			c5.33-6.53,12.02-11.26,20.08-14.2c8.06-2.94,16.73-3.67,26.01-2.21c9.28,1.46,17.31,4.83,24.07,10.1
			c6.76,5.27,11.68,11.83,14.74,19.68c3.06,7.85,3.89,16.28,2.47,25.3c-1.42,9.02-4.79,16.79-10.12,23.32
			c-5.33,6.53-12.02,11.26-20.08,14.2c-8.06,2.93-16.73,3.67-26.01,2.21c-9.29-1.46-17.31-4.83-24.08-10.1
			c-6.77-5.27-11.68-11.83-14.74-19.68C277.23,902.92,276.41,894.48,277.83,885.46z M270.1,981.91l94.87-2.39l1,39.47
			c0.2,7.81-1.06,14.63-3.76,20.46c-2.7,5.83-6.66,10.37-11.86,13.63c-5.21,3.26-11.38,4.98-18.52,5.16
			c-7.14,0.18-13.37-1.23-18.69-4.22c-5.32-2.99-9.47-7.33-12.47-13.01c-2.99-5.68-4.59-12.43-4.78-20.24l-0.38-15.05l-24.8,0.63
			L270.1,981.91z M290.85,1174.41l-13.1-68.08l93.19-17.93l12.8,66.51l-20.37,3.92l-8.23-42.77l-15.71,3.02l7.25,37.68l-19.7,3.79
			l-7.25-37.68l-17.04,3.28l8.53,44.34L290.85,1174.41z M333.23,1298.5l-7.17-18.79l33.64-53.66l-47.24,18.04l-8.54-22.36
			l88.65-33.86l7.17,18.79l-33.64,53.65l47.24-18.04l8.54,22.36L333.23,1298.5z M464.64,1378.7c-2.59-0.86-4.9-0.55-6.95,0.94
			c-2.05,1.49-2.81,3.67-2.28,6.54c0.52,2.87,1.96,7.07,4.3,12.59c2.63,6.23,4.5,11.6,5.62,16.13c1.12,4.53,1.05,9.2-0.19,14.02
			c-1.24,4.82-4.53,9.17-9.86,13.06c-4.6,3.35-9.62,5.22-15.04,5.6c-5.42,0.38-10.94-0.94-16.56-3.97
			c-5.62-3.03-10.85-7.88-15.69-14.52c-4.11-5.65-7.34-11.7-9.68-18.13c-2.34-6.44-3.44-12.25-3.3-17.43l20.72-5.16
			c0.01,4.77,0.82,9.73,2.43,14.86c1.61,5.13,3.87,9.69,6.77,13.68c5.52,7.58,10.36,9.86,14.52,6.82c2.19-1.6,3.03-3.86,2.52-6.79
			c-0.52-2.93-1.93-7.22-4.24-12.86c-2.58-6.16-4.44-11.52-5.58-16.08c-1.14-4.56-1.06-9.25,0.24-14.06
			c1.3-4.81,4.62-9.16,9.96-13.04c4.68-3.4,9.74-5.31,15.2-5.72c5.46-0.41,10.96,0.89,16.52,3.92c5.56,3.03,10.78,7.9,15.67,14.61
			c3.34,4.59,6.06,9.52,8.17,14.8c2.11,5.28,3.3,10.41,3.58,15.4l-20.54,5.64c-0.89-9.52-3.62-17.41-8.17-23.66
			C469.95,1381.96,467.23,1379.57,464.64,1378.7z M574.29,1501.38c-2.22,8.28-6.6,15.81-13.12,22.57
			c-6.53,6.76-13.89,11.4-22.09,13.92c-8.2,2.51-16.39,2.77-24.58,0.77c-8.19-2-15.57-6.17-22.14-12.51
			c-6.57-6.34-11-13.56-13.29-21.68c-2.29-8.11-2.32-16.31-0.1-24.59c2.22-8.28,6.59-15.8,13.12-22.57
			c6.53-6.76,13.89-11.4,22.09-13.92c8.2-2.51,16.39-2.77,24.58-0.77c8.19,2,15.57,6.17,22.14,12.51c6.57,6.34,11,13.57,13.29,21.68
			C576.47,1484.9,576.51,1493.1,574.29,1501.38z M630.55,1618.33c-10.17,2.52-20.61,0.25-31.33-6.79
			c-10.73-7.04-16.95-15.73-18.68-26.05c-1.73-10.33,1.27-21.38,9.01-33.17l28.87-43.97l20.42,13.41l-28.43,43.29
			c-8.33,12.69-7.93,22.04,1.21,28.04c9.08,5.96,17.78,2.59,26.11-10.1l28.42-43.29l20.11,13.2l-28.87,43.97
			C649.66,1608.67,640.71,1615.82,630.55,1618.33z M775.48,1632.17c-2.69,6.32-6.38,11.26-11.07,14.81
			c-4.69,3.55-10.1,5.6-16.22,6.13l5.45,34.74l-24.06-10.25l-4.53-29.34l-12.26-5.22l-9.88,23.2l-22.47-9.57l37.19-87.31
			l36.32,15.47c7.19,3.06,12.87,7.03,17.05,11.91c4.18,4.88,6.67,10.36,7.48,16.45C779.28,1619.27,778.28,1625.6,775.48,1632.17z
			 M876.05,1654.83c-3.78-8.48-9.55-13.63-17.32-15.43c-4.57-1.06-8.89-0.9-12.96,0.47c-4.08,1.37-7.56,3.84-10.45,7.39
			c-2.89,3.55-4.94,7.92-6.14,13.12c-1.2,5.2-1.29,10.02-0.25,14.48c1.03,4.46,3.08,8.21,6.13,11.23c3.05,3.03,6.87,5.07,11.43,6.13
			c7.77,1.8,15.22-0.28,22.34-6.23l11.65,18.57c-5.39,4.69-11.52,7.81-18.38,9.38c-6.86,1.56-14.14,1.45-21.83-0.33
			c-8.81-2.04-16.25-5.92-22.31-11.64c-6.06-5.72-10.25-12.7-12.56-20.93c-2.31-8.24-2.4-16.98-0.25-26.22
			c2.14-9.24,6.06-17.06,11.77-23.44c5.7-6.38,12.53-10.8,20.49-13.27c7.96-2.47,16.34-2.68,25.16-0.64
			c7.69,1.78,14.27,4.89,19.75,9.31c5.47,4.43,9.6,9.93,12.38,16.51L876.05,1654.83z M994.65,1655.94l-43.47-2.63l-0.97,15.97
			l38.3,2.32l-1.21,20.03l-38.3-2.32l-1.05,17.32l45.07,2.73l-1.25,20.7l-69.21-4.19l5.73-94.73l67.61,4.09L994.65,1655.94z
			 M1131.14,1717.46l-23.99,4.58l-17.8-93.21l66.53-12.71l3.89,20.37l-42.53,8.12l3.92,20.51l37.44-7.15l3.89,20.37l-37.44,7.15
			L1131.14,1717.46z M1167.59,1505.92l-335.3,0.67c-13.32,0.01-24.5,9.08-27.82,21.36c-11.94-4.44-23.69-9.29-35.27-14.52
			c-165.51-74.7-292.17-227.81-324.52-419.92c-51.56-306.2,155.61-597.26,461.8-648.82c31.5-5.3,63.04-7.92,94.37-7.92
			c115.96,0,228.94,35.92,325.53,104.67c122.69,87.32,203.98,216.97,228.92,365.06s-9.42,297.21-96.75,419.89
			c-58.97,82.84-137.25,146.78-227.46,187.27c-11.6,5.21-23.39,10.02-35.37,14.44C1192.7,1515.36,1181.26,1505.9,1167.59,1505.92z
			 M1290.26,1646.33c-1.22,8.49-4.47,16.01-9.77,22.57c-5.29,6.56-12.21,11.46-20.74,14.7c-8.53,3.24-16.96,4.18-25.27,2.79
			c-8.31-1.38-15.74-4.84-22.29-10.38c-6.55-5.54-11.49-12.7-14.83-21.48c-3.34-8.79-4.4-17.42-3.19-25.91
			c1.22-8.49,4.47-16.01,9.77-22.57c5.29-6.56,12.21-11.46,20.74-14.7c8.53-3.24,16.96-4.17,25.27-2.79
			c8.31,1.39,15.74,4.85,22.29,10.38c6.55,5.54,11.49,12.7,14.83,21.48C1290.42,1629.2,1291.48,1637.84,1290.26,1646.33z
			 M1401.99,1597.65c-2.04,10.27-8.52,18.77-19.45,25.49c-10.93,6.72-21.44,8.68-31.52,5.86c-10.08-2.81-18.82-10.23-26.21-22.24
			l-27.56-44.8l20.81-12.8l27.13,44.11c7.96,12.93,16.59,16.54,25.91,10.8c9.25-5.69,9.89-15,1.94-27.93l-27.13-44.11l20.49-12.6
			l27.56,44.8C1401.35,1576.24,1404.03,1587.38,1401.99,1597.65z M1504.25,1527.17l-62.19-11.97l33.9,37.52l-17.76,16.04
			l-63.62-70.42l14.92-13.48l62.19,11.97l-33.9-37.52l17.76-16.04l63.62,70.42L1504.25,1527.17z M1590.66,1418.36
			c-1.33,8.18-4.86,16.04-10.58,23.57l-24.7,32.52l-75.57-57.41l24.7-32.52c5.72-7.53,12.34-13.03,19.87-16.51
			c7.52-3.48,15.35-4.66,23.47-3.55c8.12,1.11,16,4.56,23.63,10.36c7.63,5.8,13.07,12.46,16.31,19.99
			C1591.04,1402.33,1592,1410.18,1590.66,1418.36z M1663.01,1304.98l-19.52-2.22l-16.4,32.63l13.43,14.34l-11.19,22.27l-67.66-76.69
			l10.81-21.49l101.97,8.46L1663.01,1304.98z M1692.51,1229.29l-70.27-21.95l-7.91,25.32l-20.32-6.35l23.07-73.83l20.32,6.35
			l-7.87,25.2l70.27,21.95L1692.51,1229.29z M1716.04,1139.15l-93.47-16.43l4.23-24.06l93.47,16.43L1716.04,1139.15z
			 M1723.76,1045.03c-4.45,7.16-10.48,12.71-18.09,16.65c-7.61,3.95-16.12,5.79-25.52,5.53c-9.39-0.26-17.78-2.57-25.17-6.93
			c-7.38-4.36-13.1-10.24-17.14-17.63c-4.04-7.39-5.94-15.65-5.69-24.78c0.25-9.13,2.6-17.27,7.05-24.43
			c4.45-7.16,10.48-12.71,18.09-16.65c7.62-3.94,16.12-5.79,25.51-5.52c9.4,0.26,17.79,2.57,25.17,6.93
			c7.38,4.36,13.1,10.24,17.14,17.63c4.05,7.39,5.94,15.65,5.69,24.78C1730.56,1029.73,1728.21,1037.88,1723.76,1045.03z"/>
		<path class="st2" d="M1221.78,1445.54v-4.91c0-15.83-12.85-28.68-28.67-28.68H806.89c-15.83,0-28.68,12.85-28.68,28.68v4.91
			c0,15.83,12.85,28.68,28.68,28.68h386.22C1208.94,1474.22,1221.78,1461.37,1221.78,1445.54z"/>
		<path class="st2" d="M798.36,1372.91h126.43v-11.95h-0.01v-158.61c0-20.77,8.42-39.59,22.04-53.21
			c13.59-13.59,32.41-22.01,53.18-22.01c41.53,0,75.22,33.66,75.22,75.22v158.61h-0.01v11.95h126.43
			c13.27,0,24.02-10.75,24.02-24.02c0-59.42,15.05-118.4,43.52-170.57l76.97-141.02c25.66-47.02,39.23-100.19,39.23-153.75
			c0-212.49-172.88-385.37-385.37-385.37S614.63,671.06,614.63,883.55c0,53.57,13.56,106.73,39.23,153.75l76.97,141.02
			c28.47,52.16,43.52,111.14,43.52,170.57C774.34,1362.15,785.09,1372.91,798.36,1372.91z M772.99,1155.31l-76.96-141.02
			c-21.82-39.98-33.36-85.19-33.36-130.73c0-181.86,144.67-330.54,324.96-337.08c4.11-0.15,8.23-0.25,12.37-0.25
			c186,0,337.33,151.33,337.33,337.33c0,45.55-11.53,90.75-33.35,130.73L1227,1155.31c-14.5,26.58-25.92,54.72-34.12,83.75v0.02
			l-17.54,53.57c0,0-0.94-199.12,0-199.12h-43.2v-31.01C1163.12,915.06,1000,856.83,1000,856.83V697.27l-16.24,42.87
			c-1.52,3.98-1.46,8.18-0.12,11.92c-2.07,2.95-3.62,6.29-3.86,9.73c-0.24,2.95-0.4,3.74-0.46,4.44
			c-13.32,4.68-22.35,13.68-22.35,24.05c0,8.57,6.14,16.21,15.75,21.25l-1.64,28.25c-23.08,12.71-45.21,27.55-66.43,44.6
			c-21.22,17.12-42.17,38.77-55.98,63c-19.67,34.6-23.08,75.1-10.55,113.14c0.15,0.43-0.18,0.88-0.64,0.88h-29.71
			c-0.36,0-0.67,0.3-0.67,0.67v15.43v161.58C798.91,1210.02,787.5,1181.88,772.99,1155.31z"/>
		<path class="st2" d="M1696.21,999.41c-4.05-2.17-8.74-3.33-14.08-3.48c-5.33-0.15-10.08,0.75-14.25,2.69
			c-4.17,1.94-7.43,4.65-9.79,8.12c-2.36,3.47-3.59,7.39-3.72,11.74c-0.12,4.36,0.9,8.34,3.06,11.93c2.16,3.6,5.27,6.48,9.32,8.65
			c4.06,2.17,8.75,3.33,14.08,3.48c5.33,0.15,10.08-0.75,14.25-2.69c4.17-1.94,7.43-4.65,9.79-8.12c2.36-3.47,3.59-7.39,3.72-11.74
			c0.12-4.36-0.9-8.33-3.06-11.93C1703.37,1004.46,1700.26,1001.58,1696.21,999.41z"/>
		<polygon class="st2" points="1622.59,1300.26 1590.47,1296.54 1612.61,1320.1 		"/>
		<path class="st2" d="M744.29,1603.71l-12.49-5.32l-10.89,25.57l12.48,5.32c4.61,1.97,8.57,2.35,11.85,1.14
			c3.28-1.2,5.79-3.84,7.53-7.92c1.74-4.07,1.91-7.73,0.52-10.98C751.91,1608.28,748.91,1605.67,744.29,1603.71z"/>
		<path class="st2" d="M1556.55,1394.46c-6.48-4.92-12.91-6.99-19.29-6.21c-6.38,0.78-11.81,4.12-16.29,10.01l-9.33,12.28
			l41.45,31.49l9.33-12.28c4.48-5.89,6.24-12.02,5.28-18.38C1566.74,1405.02,1563.03,1399.38,1556.55,1394.46z"/>
		<path class="st2" d="M1256.09,1617.04c-3.38-3.11-7.13-5.1-11.24-5.95c-4.11-0.85-8.2-0.51-12.28,1.04
			c-4.07,1.55-7.36,4.01-9.87,7.38c-2.5,3.37-3.99,7.34-4.45,11.91c-0.46,4.58,0.26,9.36,2.15,14.34c1.9,4.99,4.53,9.03,7.92,12.15
			c3.38,3.11,7.13,5.1,11.24,5.95c4.11,0.86,8.2,0.51,12.27-1.04c4.07-1.55,7.36-4.01,9.87-7.38c2.5-3.37,3.98-7.34,4.45-11.92
			c0.46-4.57-0.26-9.35-2.15-14.34C1262.12,1624.2,1259.48,1620.15,1256.09,1617.04z"/>
		<path class="st2" d="M545.46,1471.11c-3.14-3.03-6.76-4.95-10.88-5.79c-4.11-0.83-8.34-0.48-12.67,1.05
			c-4.34,1.53-8.35,4.22-12.06,8.05c-3.7,3.84-6.24,7.95-7.62,12.34c-1.38,4.39-1.58,8.62-0.6,12.7c0.97,4.08,3.03,7.63,6.17,10.66
			c3.14,3.03,6.76,4.96,10.88,5.79c4.11,0.83,8.34,0.48,12.67-1.05c4.33-1.53,8.35-4.21,12.06-8.05c3.7-3.84,6.24-7.95,7.62-12.34
			c1.37-4.39,1.57-8.62,0.6-12.7C550.65,1477.69,548.6,1474.14,545.46,1471.11z"/>
		<path class="st2" d="M309.43,910.92c3.74,2.67,8.25,4.42,13.52,5.25c5.27,0.83,10.09,0.55,14.47-0.84
			c4.38-1.39,7.96-3.66,10.75-6.8c2.78-3.14,4.51-6.87,5.19-11.17c0.68-4.31,0.17-8.38-1.51-12.23c-1.68-3.85-4.39-7.1-8.14-9.77
			c-3.74-2.67-8.25-4.42-13.51-5.25c-5.27-0.83-10.09-0.55-14.48,0.84c-4.38,1.39-7.97,3.66-10.75,6.8
			c-2.78,3.14-4.51,6.86-5.19,11.17c-0.68,4.31-0.18,8.38,1.51,12.23C302.98,904.99,305.69,908.25,309.43,910.92z"/>
		<path class="st2" d="M320.88,1029.99c2.46,2.49,5.9,3.68,10.33,3.56c4.42-0.11,7.83-1.47,10.2-4.08c2.38-2.61,3.5-6.42,3.37-11.44
			l-0.34-13.57l-27.78,0.7l0.34,13.57C317.13,1023.75,318.42,1027.51,320.88,1029.99z"/>
		<path class="st2" d="M1174.93,815.37c29.69,0,54.76-19.62,63-46.6c-8.52,7.91-19.47,13.29-31.88,14.88
			c-31.52,3.99-60.29-18.34-64.25-49.86c-2.34-18.4,4.32-35.9,16.55-48.03c-28.32,7.36-49.28,33.13-49.28,63.76
			C1109.06,785.89,1138.57,815.37,1174.93,815.37z"/>
	</g>
</g>
</svg>
